<?xml version="1.0" encoding="UTF-8"?>
<!DOCTYPE svg PUBLIC "-//W3C//DTD SVG 1.1//EN" "http://www.w3.org/Graphics/SVG/1.1/DTD/svg11.dtd">
<svg xmlns="http://www.w3.org/2000/svg" version="1.1" width="150px" height="150px" style="shape-rendering:geometricPrecision; text-rendering:geometricPrecision; image-rendering:optimizeQuality; fill-rule:evenodd; clip-rule:evenodd" xmlns:xlink="http://www.w3.org/1999/xlink">
<g><path style="opacity:1" fill="#032133" d="M 15.5,-0.5 C 54.8333,-0.5 94.1667,-0.5 133.5,-0.5C 140.118,3.11784 145.452,8.11784 149.5,14.5C 149.5,54.5 149.5,94.5 149.5,134.5C 146.167,141.167 141.167,146.167 134.5,149.5C 94.5,149.5 54.5,149.5 14.5,149.5C 7.7794,145.779 2.7794,140.446 -0.5,133.5C -0.5,94.1667 -0.5,54.8333 -0.5,15.5C 3.16667,8.5 8.5,3.16667 15.5,-0.5 Z"/></g>
<g><path style="opacity:1" fill="#5c6465" d="M 135.5,5.5 C 131.629,4.15983 127.629,3.3265 123.5,3C 88.8105,2.19366 54.1439,2.36032 19.5,3.5C 19.6107,2.88258 19.944,2.38258 20.5,2C 55.8333,1.33333 91.1667,1.33333 126.5,2C 128.5,2.33333 130.5,2.66667 132.5,3C 133.942,3.37675 134.942,4.21009 135.5,5.5 Z"/></g>
<g><path style="opacity:1" fill="#f7f8f9" d="M 135.5,5.5 C 138.139,7.47281 140.473,9.80614 142.5,12.5C 142.427,14.0269 143.094,15.0269 144.5,15.5C 144.372,17.6547 144.872,19.6547 146,21.5C 146.5,56.8318 146.667,92.1651 146.5,127.5C 146.5,127.833 146.5,128.167 146.5,128.5C 145.264,130.649 144.264,132.982 143.5,135.5C 142.662,135.842 142.328,136.508 142.5,137.5C 140.5,138.833 138.833,140.5 137.5,142.5C 134.314,143.597 131.314,144.93 128.5,146.5C 91.4759,146.808 54.4759,146.475 17.5,145.5C 16.5084,145.672 15.8417,145.338 15.5,144.5C 15.0269,143.094 14.0269,142.427 12.5,142.5C 7.77503,139.391 4.77503,135.057 3.5,129.5C 2.53225,93.1868 2.19892,56.8535 2.5,20.5C 3.10978,19.609 3.44312,18.609 3.5,17.5C 4.90632,17.0269 5.57298,16.0269 5.5,14.5C 7.5,10.5 10.5,7.5 14.5,5.5C 16.403,5.20414 18.0697,4.53747 19.5,3.5C 54.1439,2.36032 88.8105,2.19366 123.5,3C 127.629,3.3265 131.629,4.15983 135.5,5.5 Z"/></g>
<g><path style="opacity:1" fill="#8d949a" d="M 19.5,3.5 C 18.0697,4.53747 16.403,5.20414 14.5,5.5C 15.6354,3.78679 17.302,3.12012 19.5,3.5 Z"/></g>
<g><path style="opacity:1" fill="#858c92" d="M 142.5,12.5 C 143.906,12.9731 144.573,13.9731 144.5,15.5C 143.094,15.0269 142.427,14.0269 142.5,12.5 Z"/></g>
<g><path style="opacity:1" fill="#6e767c" d="M 5.5,14.5 C 5.57298,16.0269 4.90632,17.0269 3.5,17.5C 3.42702,15.9731 4.09368,14.9731 5.5,14.5 Z"/></g>
<g><path style="opacity:1" fill="#abc6fa" d="M 80.5,21.5 C 82.5,21.5 83.5,22.5 83.5,24.5C 82.1667,23.8333 81.1667,22.8333 80.5,21.5 Z"/></g>
<g><path style="opacity:1" fill="#106def" d="M 80.5,21.5 C 81.1667,22.8333 82.1667,23.8333 83.5,24.5C 84.299,27.4299 84.6323,30.4299 84.5,33.5C 83.1667,34.8333 81.8333,36.1667 80.5,37.5C 78.7483,37.4176 77.7483,38.2509 77.5,40C 77.7483,41.7491 78.7483,42.5824 80.5,42.5C 85.8145,47.9243 85.8145,53.2577 80.5,58.5C 78.7483,58.4176 77.7483,59.2509 77.5,61C 77.7483,62.7491 78.7483,63.5824 80.5,63.5C 80.8333,64.5 81.5,65.1667 82.5,65.5C 84.1783,68.5516 84.845,71.8849 84.5,75.5C 82.18,77.6637 79.8467,79.8304 77.5,82C 79.6003,84.1003 81.7669,86.2669 84,88.5C 85.7526,95.1573 83.5859,99.9906 77.5,103C 79.6003,105.1 81.7669,107.267 84,109.5C 86.0248,116.119 83.8581,120.452 77.5,122.5C 74.7628,122.599 72.0961,122.265 69.5,121.5C 65.7597,118.401 64.593,114.401 66,109.5C 67.708,107.457 69.708,105.79 72,104.5C 72.4828,103.552 72.6495,102.552 72.5,101.5C 70.6096,101.703 69.1096,101.037 68,99.5C 64.2026,94.1027 64.7026,89.2693 69.5,85C 70.448,84.5172 71.448,84.3505 72.5,84.5C 71.7302,81.0437 69.7302,78.377 66.5,76.5C 65.7347,73.9039 65.4013,71.2372 65.5,68.5C 67.1696,65.9984 69.3363,63.9984 72,62.5C 72.7401,61.2506 72.5735,60.2506 71.5,59.5C 71.0269,58.0937 70.0269,57.427 68.5,57.5C 68.1667,56.5 67.5,55.8333 66.5,55.5C 65.7347,52.9039 65.4013,50.2372 65.5,47.5C 67.2624,46.7377 68.2624,45.4044 68.5,43.5C 69.981,42.5788 71.3144,41.4121 72.5,40C 67.4008,36.9692 65.0675,32.4692 65.5,26.5C 66.9063,26.0269 67.573,25.0269 67.5,23.5C 68.0577,22.2101 69.0577,21.3768 70.5,21C 73.8881,20.3412 77.2214,20.5078 80.5,21.5 Z"/></g>
<g><path style="opacity:1" fill="#75a0f5" d="M 67.5,23.5 C 67.573,25.0269 66.9063,26.0269 65.5,26.5C 65.427,24.9731 66.0937,23.9731 67.5,23.5 Z"/></g>
<g><path style="opacity:1" fill="#5c6365" d="M 2.5,20.5 C 2.19892,56.8535 2.53225,93.1868 3.5,129.5C 2.88258,129.389 2.38258,129.056 2,128.5C 1.16899,92.331 1.33565,56.331 2.5,20.5 Z"/></g>
<g><path style="opacity:1" fill="#5e6666" d="M 144.5,15.5 C 145.558,16.6002 146.392,17.9336 147,19.5C 147.831,55.669 147.664,91.669 146.5,127.5C 146.667,92.1651 146.5,56.8318 146,21.5C 144.872,19.6547 144.372,17.6547 144.5,15.5 Z"/></g>
<g><path style="opacity:1" fill="#9bbdf7" d="M 83.5,24.5 C 84.1174,24.6107 84.6174,24.944 85,25.5C 85.8007,28.367 85.6341,31.0336 84.5,33.5C 84.6323,30.4299 84.299,27.4299 83.5,24.5 Z"/></g>
<g><path style="opacity:1" fill="#bdd3f9" d="M 80.5,37.5 C 79.1667,39.1667 79.1667,40.8333 80.5,42.5C 78.7483,42.5824 77.7483,41.7491 77.5,40C 77.7483,38.2509 78.7483,37.4176 80.5,37.5 Z"/></g>
<g><path style="opacity:1" fill="#a1c4f9" d="M 102.5,41.5 C 99.3915,41.2641 96.3915,41.5975 93.5,42.5C 93.1667,42.5 92.8333,42.5 92.5,42.5C 92.6107,41.8826 92.944,41.3826 93.5,41C 96.6965,40.1955 99.6965,40.3622 102.5,41.5 Z"/></g>
<g><path style="opacity:1" fill="#6394f6" d="M 92.5,42.5 C 92.8333,42.5 93.1667,42.5 93.5,42.5C 89.9222,45.6329 88.5889,49.6329 89.5,54.5C 86.4113,49.6311 87.4113,45.6311 92.5,42.5 Z"/></g>
<g><path style="opacity:1" fill="#1a6eef" d="M 102.5,41.5 C 110.101,46.7138 110.434,52.3805 103.5,58.5C 101.748,58.4176 100.748,59.2509 100.5,61C 100.748,62.7491 101.748,63.5824 103.5,63.5C 105.481,65.1436 107.481,66.8103 109.5,68.5C 111.801,67.1433 113.801,65.3099 115.5,63C 121.694,61.2886 126.86,62.7886 131,67.5C 132.034,77.2739 127.534,81.6072 117.5,80.5C 117.027,79.0937 116.027,78.427 114.5,78.5C 114.167,77.5 113.5,76.8333 112.5,76.5C 112.582,74.7483 111.749,73.7483 110,73.5C 107.926,74.0717 106.76,75.405 106.5,77.5C 100.653,81.8295 95.1528,81.4962 90,76.5C 86.8902,69.5568 88.7236,64.3902 95.5,61C 93.3169,58.9843 91.3169,56.8176 89.5,54.5C 88.5889,49.6329 89.9222,45.6329 93.5,42.5C 96.3915,41.5975 99.3915,41.2641 102.5,41.5 Z"/></g>
<g><path style="opacity:1" fill="#75a3f5" d="M 68.5,43.5 C 68.2624,45.4044 67.2624,46.7377 65.5,47.5C 65.7376,45.5956 66.7376,44.2623 68.5,43.5 Z"/></g>
<g><path style="opacity:1" fill="#a7c3f9" d="M 65.5,47.5 C 65.4013,50.2372 65.7347,52.9039 66.5,55.5C 64.9735,54.5081 64.3068,53.0081 64.5,51C 64.5143,49.6153 64.8476,48.4486 65.5,47.5 Z"/></g>
<g><path style="opacity:1" fill="#72a1f8" d="M 68.5,57.5 C 70.0269,57.427 71.0269,58.0937 71.5,59.5C 69.9731,59.573 68.9731,58.9063 68.5,57.5 Z"/></g>
<g><path style="opacity:1" fill="#bed3f9" d="M 80.5,58.5 C 79.1667,60.1667 79.1667,61.8333 80.5,63.5C 78.7483,63.5824 77.7483,62.7491 77.5,61C 77.7483,59.2509 78.7483,58.4176 80.5,58.5 Z"/></g>
<g><path style="opacity:1" fill="#bed2f9" d="M 103.5,58.5 C 102.438,60.0992 102.438,61.7659 103.5,63.5C 101.748,63.5824 100.748,62.7491 100.5,61C 100.748,59.2509 101.748,58.4176 103.5,58.5 Z"/></g>
<g><path style="opacity:1" fill="#b6cffa" d="M 30.5,62.5 C 28.0971,62.448 25.7638,62.7814 23.5,63.5C 24.3121,62.0069 25.6455,61.3402 27.5,61.5C 28.7261,61.5195 29.7261,61.8529 30.5,62.5 Z"/></g>
<g><path style="opacity:1" fill="#196eef" d="M 30.5,62.5 C 33.9607,63.5512 36.6273,65.5512 38.5,68.5C 38.9169,69.1239 39.5836,69.4573 40.5,69.5C 41.7133,69.2528 42.38,68.5862 42.5,67.5C 42.9156,65.2475 44.249,63.7475 46.5,63C 60.7648,62.0439 64.4314,67.5439 57.5,79.5C 54.7564,80.0717 53.9231,81.7383 55,84.5C 55.6708,85.2524 56.5041,85.5858 57.5,85.5C 58.5,85.8333 59.1667,86.5 59.5,87.5C 60.2653,90.0961 60.5987,92.7628 60.5,95.5C 57.4402,102.355 52.4402,104.188 45.5,101C 43.7682,99.0281 42.4348,96.8614 41.5,94.5C 40.7465,88.9306 43.0798,85.5972 48.5,84.5C 48.762,83.0222 48.4287,81.6888 47.5,80.5C 45.1182,78.785 43.1182,76.785 41.5,74.5C 39.2911,73.0242 37.9577,73.6909 37.5,76.5C 34.9714,78.0729 32.9714,80.0729 31.5,82.5C 32.9667,84.4978 34.8001,86.1645 37,87.5C 38.6954,90.7887 38.8621,94.122 37.5,97.5C 33.8201,102.218 29.1535,103.552 23.5,101.5C 21.7224,99.736 20.3891,97.736 19.5,95.5C 19.4013,92.7628 19.7347,90.0961 20.5,87.5C 21.4006,85.2729 23.0672,84.2729 25.5,84.5C 25.7678,82.901 25.4345,81.5676 24.5,80.5C 24.0269,79.0937 23.0269,78.427 21.5,78.5C 16.9473,72.7052 17.6139,67.7052 23.5,63.5C 25.7638,62.7814 28.0971,62.448 30.5,62.5 Z"/></g>
<g><path style="opacity:1" fill="#6d9df4" d="M 42.5,67.5 C 42.38,68.5862 41.7133,69.2528 40.5,69.5C 39.5836,69.4573 38.9169,69.1239 38.5,68.5C 39.9587,68.5674 41.2921,68.2341 42.5,67.5 Z"/></g>
<g><path style="opacity:1" fill="#97b8f8" d="M 82.5,65.5 C 83.4584,65.9528 84.2917,66.6195 85,67.5C 85.8007,70.367 85.6341,73.0336 84.5,75.5C 84.845,71.8849 84.1783,68.5516 82.5,65.5 Z"/></g>
<g><path style="opacity:1" fill="#b6cdf9" d="M 65.5,68.5 C 65.4013,71.2372 65.7347,73.9039 66.5,76.5C 64.9735,75.5081 64.3068,74.0081 64.5,72C 64.5143,70.6153 64.8476,69.4486 65.5,68.5 Z"/></g>
<g><path style="opacity:1" fill="#9fbdf6" d="M 41.5,74.5 C 39.9382,74.7329 38.6049,75.3995 37.5,76.5C 37.9577,73.6909 39.2911,73.0242 41.5,74.5 Z"/></g>
<g><path style="opacity:1" fill="#b7cdf8" d="M 112.5,76.5 C 110.249,75.1353 108.249,75.4686 106.5,77.5C 106.76,75.405 107.926,74.0717 110,73.5C 111.749,73.7483 112.582,74.7483 112.5,76.5 Z"/></g>
<g><path style="opacity:1" fill="#e8eef9" d="M 41.5,74.5 C 43.1182,76.785 45.1182,78.785 47.5,80.5C 48.4287,81.6888 48.762,83.0222 48.5,84.5C 43.0798,85.5972 40.7465,88.9306 41.5,94.5C 40.8826,94.3893 40.3826,94.056 40,93.5C 39.8784,95.437 39.045,96.7703 37.5,97.5C 38.8621,94.122 38.6954,90.7887 37,87.5C 34.8001,86.1645 32.9667,84.4978 31.5,82.5C 32.9714,80.0729 34.9714,78.0729 37.5,76.5C 38.6049,75.3995 39.9382,74.7329 41.5,74.5 Z"/></g>
<g><path style="opacity:1" fill="#88aff5" d="M 21.5,78.5 C 23.0269,78.427 24.0269,79.0937 24.5,80.5C 22.9731,80.573 21.9731,79.9063 21.5,78.5 Z"/></g>
<g><path style="opacity:1" fill="#95b8f8" d="M 114.5,78.5 C 116.027,78.427 117.027,79.0937 117.5,80.5C 115.973,80.573 114.973,79.9063 114.5,78.5 Z"/></g>
<g><path style="opacity:1" fill="#bed1f9" d="M 57.5,79.5 C 56.8592,80.4822 56.1925,81.4822 55.5,82.5C 56.1925,83.5178 56.8592,84.5178 57.5,85.5C 56.5041,85.5858 55.6708,85.2524 55,84.5C 53.9231,81.7383 54.7564,80.0717 57.5,79.5 Z"/></g>
<g><path style="opacity:1" fill="#6896f3" d="M 59.5,87.5 C 61.0265,88.4919 61.6932,89.9919 61.5,92C 61.4857,93.3847 61.1524,94.5514 60.5,95.5C 60.5987,92.7628 60.2653,90.0961 59.5,87.5 Z"/></g>
<g><path style="opacity:1" fill="#6da1f6" d="M 20.5,87.5 C 19.7347,90.0961 19.4013,92.7628 19.5,95.5C 18.8476,94.5514 18.5143,93.3847 18.5,92C 18.3068,89.9919 18.9735,88.4919 20.5,87.5 Z"/></g>
<g><path style="opacity:1" fill="#7fa8f4" d="M 69.5,121.5 C 72.0961,122.265 74.7628,122.599 77.5,122.5C 76.5514,123.152 75.3847,123.486 74,123.5C 71.9919,123.693 70.4919,123.026 69.5,121.5 Z"/></g>
<g><path style="opacity:1" fill="#405059" d="M 146.5,128.5 C 146.821,131.577 145.821,133.91 143.5,135.5C 144.264,132.982 145.264,130.649 146.5,128.5 Z"/></g>
<g><path style="opacity:1" fill="#405059" d="M 142.5,137.5 C 141.833,140.167 140.167,141.833 137.5,142.5C 138.833,140.5 140.5,138.833 142.5,137.5 Z"/></g>
<g><path style="opacity:1" fill="#90989d" d="M 12.5,142.5 C 14.0269,142.427 15.0269,143.094 15.5,144.5C 13.9731,144.573 12.9731,143.906 12.5,142.5 Z"/></g>
<g><path style="opacity:1" fill="#5c6364" d="M 17.5,145.5 C 54.4759,146.475 91.4759,146.808 128.5,146.5C 92.3356,147.664 56.0023,147.831 19.5,147C 18.5842,146.722 17.9175,146.222 17.5,145.5 Z"/></g>
</svg>
